<svg width="29" height="29" viewBox="0 0 29 29" fill="none" xmlns="http://www.w3.org/2000/svg">
<g clip-path="url(#clip0)">
<path d="M28.5133 13.2013L24.1182 8.80623V3.72916C24.1182 2.81116 23.3742 2.06719 22.4549 2.06719C21.5377 2.06719 20.7937 2.81116 20.7937 3.72916V5.48187L17.5212 2.20926C15.9033 0.592185 13.0902 0.595053 11.4759 2.21219L0.486576 13.2013C-0.162151 13.8513 -0.162151 14.9031 0.486576 15.5521C1.1356 16.202 2.18941 16.202 2.8382 15.5521L13.8265 4.5627C14.1845 4.2066 14.8154 4.2066 15.1715 4.56164L26.1617 15.5521C26.4876 15.8771 26.9125 16.0387 27.3372 16.0387C27.7628 16.0387 28.1884 15.8769 28.5133 15.5521C29.1623 14.9032 29.1623 13.8514 28.5133 13.2013Z" fill="#B3B3B4"/>
<path d="M15.0773 7.71753C14.758 7.39844 14.2411 7.39844 13.9227 7.71753L4.25646 17.3809C4.10385 17.5335 4.01733 17.7418 4.01733 17.9591V25.0073C4.01733 26.6612 5.35834 28.0021 7.01218 28.0021H11.798V20.5905H17.201V28.0021H21.9869C23.6407 28.0021 24.9817 26.6612 24.9817 25.0073V17.9591C24.9817 17.7418 24.8959 17.5335 24.7425 17.3809L15.0773 7.71753Z" fill="#B3B3B4"/>
</g>
<defs>
<clipPath id="clip0">
<rect width="29" height="29" fill="white"/>
</clipPath>
</defs>
</svg>
